<svg version="1.0" xmlns="http://www.w3.org/2000/svg" width="79" height="67" viewBox="0 0 790 670"><g fill="#46b914"><path d="M210 649C144 622 64 546 30 475 10 433 5 410 5 335c0-85 2-94 36-155C176-66 514-59 639 192c27 54 31 72 31 145 0 80-1 85-33 119l-33 37-42-28c-45-30-75-28-93 7-9 17-5 30 30 79l41 58-52 28c-74 37-198 43-278 12zm150-114c0-15 8-29 23-36 46-24 67-51 67-89 0-50-28-83-96-114-46-21-55-29-52-48 3-21 8-23 66-21 47 1 62-2 64-13 0-8 1-19 2-26 1-6-15-16-34-23-23-8-36-19-38-33-2-16-10-22-28-22-19 0-24 5-24 25 0 17-7 28-22 34-30 12-55 40-63 72-11 43 17 83 77 111 72 34 86 52 63 78-20 23-47 25-94 9-37-13-37-13-46 22-6 24-3 28 37 40 32 10 44 20 46 37 5 33 52 31 52-3z"/><path d="M546 568c-31-39-56-75-56-80 0-23 35-18 75 11l44 31 71-82c69-80 105-102 105-66 0 19-162 258-175 258-5 0-34-32-64-72z"/></g></svg>