<svg version="1.0" xmlns="http://www.w3.org/2000/svg" width="59" height="69" viewBox="0 0 590 690"><g fill="#46b814"><path d="M126 655c-4-19-17-47-30-62-44-53-66-109-66-170 0-80 7-88 55-63 49 25 117 25 171 1 53-24 81-54 109-116 27-59 40-73 84-81l33-7-7 46c-7 43-5 50 23 81 17 19 33 44 37 55 3 11 16 21 28 23 20 3 22 9 22 63s-2 60-22 63c-12 2-25 12-29 24-3 11-22 38-42 60-21 24-38 54-41 76l-6 37-63 3c-51 2-62 0-62-13 0-11-10-15-35-15-24 0-35 5-35 15 0 12-13 15-59 15h-59l-6-35zm344-310c0-8-9-15-20-15s-20 7-20 15 9 15 20 15 20-7 20-15z"/><path d="M105 336c-38-17-80-62-94-99C-31 127 54 0 168 0c75 0 127 32 163 102 54 105-24 237-144 245-31 2-64-2-82-11zm80-56c-3-5 6-17 20-26 17-11 25-25 25-45 0-23-7-32-41-49-46-24-47-46 0-44 36 2 39-8 11-36-23-23-40-26-40-7 0 7-9 18-20 25-34 21-25 58 20 87 46 29 44 49-6 43-20-2-35 1-38 8-6 16 3 24 26 24 10 0 18 7 18 15s7 15 16 15c8 0 13-4 9-10z"/></g></svg>