<!DOCTYPE svg PUBLIC "-//W3C//DTD SVG 20010904//EN" "http://www.w3.org/TR/2001/REC-SVG-20010904/DTD/svg10.dtd">
<svg version="1.0" xmlns="http://www.w3.org/2000/svg" width="65px" height="62px" viewBox="0 0 650 620" preserveAspectRatio="xMidYMid meet">
<g id="layer101" fill="#46b814" stroke="none">
 <path d="M7 613 c-4 -3 -7 -100 -7 -214 0 -221 -1 -219 51 -219 12 0 19 7 19 20 0 13 -7 20 -20 20 -20 0 -20 5 -18 183 3 154 5 182 18 182 9 0 40 -48 78 -122 l63 -123 144 0 145 0 0 -45 c0 -25 4 -45 10 -45 14 0 32 38 28 63 -3 21 1 22 65 25 63 3 67 4 67 26 0 24 -91 207 -118 239 -14 15 -39 17 -267 17 -138 0 -255 -3 -258 -7z"/>
 <path d="M92 250 l3 -245 141 -3 142 -3 41 50 42 50 -3 113 c-4 143 -22 151 -26 11 l-3 -102 -37 -3 c-36 -3 -37 -4 -40 -46 l-3 -42 -114 0 -114 0 -3 220 c-2 160 -6 222 -16 232 -10 10 -12 -35 -10 -232z"/>
 <path d="M144 346 c-8 -22 -1 -28 26 -24 l22 3 -21 19 c-19 17 -21 17 -27 2z"/>
 <path d="M153 263 c-7 -2 -13 -11 -13 -19 0 -11 25 -14 135 -14 109 0 135 3 135 14 0 8 -7 17 -16 20 -19 7 -223 7 -241 -1z"/>
 <path d="M140 155 c0 -13 22 -15 135 -15 113 0 135 2 135 15 0 13 -22 15 -135 15 -113 0 -135 -2 -135 -15z"/>
 </g>

</svg>