<!DOCTYPE svg PUBLIC "-//W3C//DTD SVG 20010904//EN" "http://www.w3.org/TR/2001/REC-SVG-20010904/DTD/svg10.dtd">
<svg version="1.0" xmlns="http://www.w3.org/2000/svg" width="66px" height="66px" viewBox="0 0 660 660" preserveAspectRatio="xMidYMid meet">
<g id="layer101" fill="#47ba14" stroke="none">
 <path d="M240 651 c-86 -28 -168 -98 -211 -181 -20 -38 -24 -60 -24 -140 0 -84 3 -101 27 -145 32 -60 97 -124 158 -156 38 -20 60 -24 140 -24 80 0 102 4 140 24 61 32 126 96 158 156 24 44 27 61 27 145 0 110 -17 154 -89 228 -64 67 -126 95 -221 98 -44 2 -91 0 -105 -5z m200 -91 c97 -50 143 -123 143 -230 0 -147 -106 -254 -253 -254 -144 0 -252 106 -254 249 -1 65 14 112 51 162 26 36 97 81 146 94 45 11 123 1 167 -21z"/>
 <path d="M313 373 c-10 -3 -13 -39 -13 -129 0 -102 3 -126 15 -130 34 -13 45 15 45 112 l0 93 82 3 c72 3 83 6 86 22 2 10 -2 22 -10 27 -14 9 -184 11 -205 2z"/>
 </g>

</svg>