<!DOCTYPE svg PUBLIC "-//W3C//DTD SVG 20010904//EN" "http://www.w3.org/TR/2001/REC-SVG-20010904/DTD/svg10.dtd">
<svg version="1.0" xmlns="http://www.w3.org/2000/svg" width="79px" height="67px" viewBox="0 0 790 670" preserveAspectRatio="xMidYMid meet">
<g id="layer101" fill="#46b914" stroke="none">
 <path d="M210 649 c-66 -27 -146 -103 -180 -174 -20 -42 -25 -65 -25 -140 0 -85 2 -94 36 -155 135 -246 473 -239 598 12 27 54 31 72 31 145 0 80 -1 85 -33 119 l-33 37 -42 -28 c-45 -30 -75 -28 -93 7 -9 17 -5 30 30 79 l41 58 -52 28 c-74 37 -198 43 -278 12z m150 -114 c0 -15 8 -29 23 -36 46 -24 67 -51 67 -89 0 -50 -28 -83 -96 -114 -46 -21 -55 -29 -52 -48 3 -21 8 -23 66 -21 47 1 62 -2 64 -13 0 -8 1 -19 2 -26 1 -6 -15 -16 -34 -23 -23 -8 -36 -19 -38 -33 -2 -16 -10 -22 -28 -22 -19 0 -24 5 -24 25 0 17 -7 28 -22 34 -30 12 -55 40 -63 72 -11 43 17 83 77 111 72 34 86 52 63 78 -20 23 -47 25 -94 9 -37 -13 -37 -13 -46 22 -6 24 -3 28 37 40 32 10 44 20 46 37 5 33 52 31 52 -3z"/>
 <path d="M546 568 c-31 -39 -56 -75 -56 -80 0 -23 35 -18 75 11 l44 31 71 -82 c69 -80 105 -102 105 -66 0 19 -162 258 -175 258 -5 0 -34 -32 -64 -72z"/>
 </g>

</svg>